<?xml version="1.0" encoding="utf-8"?>
<svg xmlns="http://www.w3.org/2000/svg" fill="none" height="100%" overflow="visible" preserveAspectRatio="none" style="display: block;" viewBox="0 0 122 20" width="100%">
<path d="M23.5 5.48828C24.8082 5.48835 25.9598 5.79165 26.9541 6.39844C27.9657 6.98789 28.7504 7.8288 29.3086 8.9209C29.8843 9.99588 30.1728 11.2704 30.1729 12.7441C30.1729 12.9347 30.1639 13.1168 30.1465 13.29V13.8369H20.8984C21.003 14.6477 21.2306 15.281 21.5889 15.7354C22.0948 16.3768 22.793 16.6972 23.6826 16.6973C24.2583 16.6973 24.7561 16.5677 25.1748 16.3076C25.6108 16.0302 25.9154 15.6134 26.0898 15.0586L29.8057 15.9951C29.4742 17.1914 28.7681 18.1627 27.6865 18.9082C26.6049 19.6364 25.1918 20 23.4473 20C22.1563 20 21.005 19.6967 19.9932 19.0898C18.9988 18.483 18.2223 17.6333 17.6641 16.541C17.1059 15.4487 16.8271 14.1831 16.8271 12.7441C16.8272 11.2877 17.1058 10.0132 17.6641 8.9209C18.2397 7.82877 19.0333 6.98791 20.0449 6.39844C21.0568 5.79159 22.209 5.48828 23.5 5.48828ZM35.4434 5.85156H39.1074V9.05078H35.4434V14.3564C35.4434 15.0497 35.627 15.5784 35.9932 15.9424C36.3595 16.2891 36.8742 16.4629 37.5371 16.4629C37.851 16.4629 38.1388 16.4367 38.4004 16.3848C38.6795 16.3154 38.9592 16.2461 39.2383 16.1768V19.6357C38.8371 19.7571 38.4096 19.8435 37.9561 19.8955C37.5199 19.9649 37.0221 20 36.4639 20C34.9464 19.9999 33.7431 19.5659 32.8535 18.6992C31.9812 17.8323 31.5449 16.5317 31.5449 14.7979V9.05078H29.8174V5.85156H31.5449V2.99023L35.4434 2.23633V5.85156ZM59.7217 5.48828C61.0301 5.48828 62.1814 5.79161 63.1758 6.39844C64.1876 6.98794 64.973 7.8286 65.5312 8.9209C66.1069 9.99588 66.3945 11.2704 66.3945 12.7441C66.3945 12.9348 66.3856 13.1167 66.3682 13.29V13.8369H57.1201C57.2247 14.6478 57.4532 15.281 57.8115 15.7354C58.3174 16.3768 59.0156 16.6973 59.9053 16.6973C60.4807 16.6972 60.9779 16.5676 61.3965 16.3076C61.8326 16.0302 62.138 15.6134 62.3125 15.0586L66.0283 15.9951C65.6969 17.1915 64.9898 18.1626 63.9082 18.9082C62.8266 19.6362 61.4133 20 59.6689 20C58.3782 19.9999 57.2266 19.6966 56.2148 19.0898C55.2206 18.483 54.4439 17.6332 53.8857 16.541C53.3276 15.4488 53.0488 14.183 53.0488 12.7441C53.0488 11.2878 53.3275 10.0132 53.8857 8.9209C54.4614 7.82858 55.2558 6.98795 56.2676 6.39844C57.2794 5.7916 58.4307 5.48829 59.7217 5.48828ZM96.5576 5.48828C97.8659 5.48835 99.0174 5.79165 100.012 6.39844C101.023 6.98789 101.808 7.8288 102.366 8.9209C102.942 9.99588 103.23 11.2704 103.23 12.7441C103.23 12.9347 103.222 13.1168 103.204 13.29V13.8369H93.9561C94.0606 14.6477 94.2882 15.281 94.6465 15.7354C95.1524 16.3768 95.8506 16.6972 96.7402 16.6973C97.3159 16.6973 97.8137 16.5677 98.2324 16.3076C98.6685 16.0302 98.973 15.6134 99.1475 15.0586L102.863 15.9951C102.532 17.1914 101.826 18.1627 100.744 18.9082C99.6625 19.6364 98.2494 20 96.5049 20C95.2139 20 94.0626 19.6967 93.0508 19.0898C92.0564 18.483 91.2799 17.6333 90.7217 16.541C90.1635 15.4487 89.8848 14.1831 89.8848 12.7441C89.8848 11.2877 90.1634 10.0132 90.7217 8.9209C91.2973 7.82877 92.0909 6.98791 93.1025 6.39844C94.1144 5.79159 95.2666 5.48828 96.5576 5.48828ZM122 19.6357H118.102V17.3936C117.932 17.7581 117.732 18.0901 117.499 18.3877C116.662 19.4624 115.545 20 114.149 20C113.085 19.9999 112.152 19.7137 111.35 19.1416C110.565 18.5521 109.954 17.7195 109.518 16.6445C109.082 15.5523 108.864 14.2515 108.864 12.7432C108.864 11.2178 109.082 9.91758 109.518 8.84277C109.954 7.76792 110.565 6.94423 111.35 6.37207C112.152 5.78263 113.085 5.48737 114.149 5.4873C115.545 5.4873 116.662 6.02482 117.499 7.09961C117.732 7.39242 117.932 7.72074 118.102 8.08301V1.04004H122V19.6357ZM81.3193 0.650391C81.86 0.650402 82.3312 0.684563 82.7324 0.753906C83.1336 0.805921 83.5175 0.884267 83.8838 0.988281V4.1875C83.6221 4.11815 83.3514 4.06593 83.0723 4.03125C82.7932 3.97924 82.4788 3.95312 82.1299 3.95312C81.5369 3.95319 81.0746 4.09179 80.7432 4.36914C80.4292 4.62918 80.2725 5.02808 80.2725 5.56543V5.85156H89.0645V19.6357H85.166V9.05078H80.2725V19.6357H76.373V9.05078H75.4854V9.93555H73.627C72.8246 9.93556 72.2056 10.1264 71.7695 10.5078C71.3334 10.8892 71.1153 11.5824 71.1152 12.5879V19.6367H67.2158V5.85254H71.1152V9.07715C71.4327 7.96875 71.9281 7.10148 72.6064 6.47656C73.3217 5.8177 74.2816 5.48828 75.4854 5.48828V5.85156H76.373V5.69531C76.3731 4.01377 76.8095 2.75699 77.6816 1.9248C78.5714 1.07522 79.7841 0.650391 81.3193 0.650391ZM11.8809 1.69043L17.6641 19.6357H13.3193L12.0605 15.5264H5.48828L4.26562 19.6357H0L5.7832 1.69043H11.8809ZM43.5781 8.11328C43.9536 7.29278 44.4578 6.65962 45.0957 6.21582C45.8109 5.73041 46.6481 5.48737 47.6074 5.4873C48.5146 5.4873 49.3178 5.70423 50.0156 6.1377C50.7132 6.5711 51.254 7.19512 51.6377 8.00977C52.0389 8.82468 52.2393 9.80488 52.2393 10.9492V19.6357H48.3408V11.7295C48.3408 10.8105 48.1137 10.1166 47.6602 9.64844C47.224 9.16303 46.6568 8.91992 45.959 8.91992C45.2614 8.91998 44.6859 9.16318 44.2324 9.64844C43.8507 10.0581 43.6356 10.6406 43.5879 11.3955L43.5781 11.7295V19.6357H39.6787V1.04004H43.5781V8.11328ZM107.951 19.6357H104.052V1.04004H107.951V19.6357ZM115.615 8.97266C114.778 8.97266 114.106 9.29321 113.601 9.93457C113.112 10.5587 112.867 11.495 112.867 12.7432C112.867 13.9915 113.112 14.9366 113.601 15.5781C114.107 16.2023 114.778 16.5146 115.615 16.5146C116.453 16.5146 117.115 16.2023 117.604 15.5781C118.109 14.9366 118.363 13.9915 118.363 12.7432C118.363 11.495 118.109 10.5587 117.604 9.93457C117.115 9.29326 116.452 8.97267 115.615 8.97266ZM6.54785 11.9639H10.9697L8.72656 4.6377L6.54785 11.9639ZM23.5 8.73926C22.6977 8.73926 22.0519 9.05093 21.5635 9.6748C21.2677 10.0422 21.062 10.5628 20.9453 11.2354H26.0859C25.9739 10.5486 25.7757 10.0198 25.4883 9.64941C25.0348 9.04266 24.3721 8.73936 23.5 8.73926ZM59.7217 8.73926C58.9193 8.73927 58.2736 9.05078 57.7852 9.6748C57.4894 10.0422 57.2837 10.5628 57.167 11.2354H62.3076C62.1956 10.5487 61.9983 10.0198 61.7109 9.64941C61.2574 9.04256 60.594 8.73926 59.7217 8.73926ZM96.5576 8.73926C95.7553 8.73926 95.1095 9.05093 94.6211 9.6748C94.3253 10.0422 94.1196 10.5628 94.0029 11.2354H99.1436C99.0315 10.5485 98.8334 10.0198 98.5459 9.64941C98.0924 9.04266 97.4297 8.73936 96.5576 8.73926ZM87.1025 0C87.7653 5.59246e-05 88.3149 0.207971 88.751 0.624023C89.2046 1.04015 89.4316 1.59552 89.4316 2.28906C89.4316 2.98238 89.2044 3.53708 88.751 3.95312C88.3149 4.35186 87.7653 4.5517 87.1025 4.55176C86.4572 4.55176 85.9076 4.35179 85.4541 3.95312C85.018 3.53708 84.7999 2.98243 84.7998 2.28906C84.7998 1.59552 85.018 1.04015 85.4541 0.624023C85.9076 0.208093 86.4572 0 87.1025 0Z" fill="var(--fill-0, #8E1606)" id="Logo"/>
</svg>